# Blender v2.79 (sub 0) OBJ File: ''
# www.blender.org
mtllib GreenShell.mtl
o polygon1
v 0.112847 -0.003459 -0.267045
v 0.208514 -0.047028 -0.202560
v 0.124132 -0.016356 -0.307655
v -0.208514 -0.047028 -0.202560
v 0.000000 0.007666 -0.290181
v -0.112847 -0.003459 -0.267045
v -0.124132 -0.016356 -0.307655
v -0.229366 -0.065603 -0.231189
v -0.272437 -0.078147 -0.109283
v -0.299681 -0.104022 -0.121345
v -0.294884 -0.088465 -0.000000
v -0.324372 -0.117953 -0.000000
v -0.299681 -0.104022 0.121345
v -0.299681 -0.133259 0.123253
v -0.229366 -0.094279 0.236445
v -0.208514 -0.133794 0.215017
v -0.112847 -0.056331 0.285683
v 0.112847 -0.056331 0.285683
v 0.000000 -0.029699 0.308720
v 0.124132 -0.010272 0.307666
v 0.000000 0.017022 0.328138
v 0.000000 0.040843 0.311339
v -0.124132 -0.010272 0.307666
v -0.124132 0.015166 0.293809
v -0.229366 -0.065603 0.231189
v -0.208514 -0.047028 0.202560
v -0.272437 -0.078147 0.109283
v 0.272437 -0.078147 0.109283
v 0.294884 -0.088465 -0.000000
v 0.299681 -0.104022 0.121344
v 0.324372 -0.117953 -0.000000
v 0.299681 -0.133259 0.123253
v 0.324372 -0.147442 -0.000000
v 0.294884 -0.176930 -0.000000
v 0.299681 -0.133259 -0.123253
v 0.272437 -0.166041 -0.113620
v 0.208514 -0.133794 -0.215017
v -0.208514 -0.133794 -0.215017
v -0.112847 -0.086611 -0.292100
v -0.229366 -0.094279 -0.236444
v -0.124132 -0.043102 -0.318778
v -0.299681 -0.133259 -0.123253
v -0.324372 -0.147442 -0.000000
v -0.294884 -0.176930 -0.000000
v -0.272437 -0.166041 0.113620
v 0.208514 -0.133794 0.215017
v 0.229366 -0.094279 0.236444
v 0.229366 -0.065603 0.231189
v 0.124132 0.015165 0.293809
v 0.208514 -0.047028 0.202560
v 0.112847 0.023747 0.252073
v -0.112847 0.023747 0.252073
v 0.000000 0.046686 0.267822
v 0.000000 -0.004176 -0.332461
v 0.124132 -0.043102 -0.318778
v 0.000000 -0.030103 -0.345781
v 0.000000 -0.073667 -0.320050
v -0.272437 -0.166041 -0.113620
v 0.299681 -0.104022 -0.121345
v 0.229366 -0.094279 -0.236445
v 0.229366 -0.065603 -0.231189
v 0.272437 -0.078147 -0.109283
v 0.112847 -0.086611 -0.292100
v 0.272437 -0.166041 0.113620
vt 0.683102 0.548333
vt 0.838329 0.598695
vt 0.701412 0.516618
vt 0.161671 0.598695
vt 0.500000 0.530264
vt 0.316898 0.548333
vt 0.298588 0.516618
vt 0.127838 0.576336
vt 0.057952 0.671542
vt 0.013748 0.662122
vt 0.021531 0.756890
vt -0.026316 0.756890
vt 0.013748 0.851657
vt 0.013748 0.853148
vt 0.127839 0.941548
vt 0.161672 0.924813
vt 0.316898 0.980001
vt 0.683102 0.980001
vt 0.500000 0.997992
vt 0.701413 0.997170
vt 0.500000 1.013158
vt 0.500000 1.000038
vt 0.298588 0.997170
vt 0.298588 0.986348
vt 0.127839 0.937443
vt 0.161672 0.915084
vt 0.057952 0.842237
vt 0.942048 0.842237
vt 0.978469 0.756890
vt 0.986252 0.851657
vt 1.026316 0.756890
vt 0.986252 0.853148
vt 1.026316 0.756890
vt 0.978469 0.756890
vt 0.986252 0.660632
vt 0.942048 0.668155
vt 0.838329 0.588966
vt 0.161671 0.588966
vt 0.316898 0.528766
vt 0.127838 0.572232
vt 0.298588 0.507932
vt 0.013748 0.660632
vt -0.026316 0.756890
vt 0.021531 0.756890
vt 0.057952 0.845625
vt 0.838329 0.924813
vt 0.872162 0.941547
vt 0.872162 0.937443
vt 0.701413 0.986348
vt 0.838329 0.915084
vt 0.683102 0.953753
vt 0.316898 0.953753
vt 0.500000 0.966052
vt 0.500000 0.497245
vt 0.701412 0.507932
vt 0.500000 0.486842
vt 0.500000 0.506938
vt 0.057952 0.668155
vt 0.986252 0.662122
vt 0.872162 0.572232
vt 0.872162 0.576336
vt 0.942048 0.671542
vt 0.683102 0.528766
vt 0.942048 0.845624
vn 0.2321 0.9712 0.0537
vn 0.3410 0.9352 0.0955
vn 0.4007 0.7956 -0.4544
vn -0.3410 0.9352 0.0955
vn -0.0000 0.9940 -0.1090
vn -0.2321 0.9712 0.0537
vn -0.4007 0.7956 -0.4544
vn -0.7157 0.5402 -0.4427
vn -0.4052 0.9141 0.0162
vn -0.8611 0.4268 -0.2764
vn -0.4915 0.8709 -0.0000
vn -0.9655 0.2602 0.0000
vn -0.8611 0.4268 0.2764
vn -0.8354 -0.3951 0.3820
vn -0.6115 -0.2484 0.7513
vn -0.2792 -0.7367 0.6159
vn -0.0936 -0.5605 0.8228
vn 0.0936 -0.5605 0.8228
vn -0.0000 -0.4662 0.8847
vn 0.3465 0.0378 0.9373
vn -0.0000 0.1015 0.9948
vn 0.0000 0.7461 0.6659
vn -0.3465 0.0378 0.9373
vn -0.4744 0.8107 0.3431
vn -0.7330 0.5398 0.4138
vn -0.4052 0.8876 -0.2190
vn -0.4052 0.9141 -0.0162
vn 0.4052 0.9141 -0.0162
vn 0.4915 0.8709 -0.0000
vn 0.8611 0.4268 0.2764
vn 0.9655 0.2602 0.0000
vn 0.8354 -0.3951 0.3820
vn 0.9242 -0.3818 -0.0000
vn 0.5167 -0.8560 0.0170
vn 0.8354 -0.3951 -0.3820
vn 0.3490 -0.8826 -0.3149
vn 0.3057 -0.7638 -0.5684
vn -0.3058 -0.7638 -0.5684
vn -0.1644 -0.7129 -0.6818
vn -0.6549 -0.2691 -0.7062
vn -0.3834 -0.0576 -0.9218
vn -0.8354 -0.3951 -0.3820
vn -0.9242 -0.3818 0.0000
vn -0.5167 -0.8560 0.0170
vn -0.4619 -0.8189 0.3408
vn 0.2792 -0.7367 0.6159
vn 0.6115 -0.2484 0.7513
vn 0.7330 0.5398 0.4138
vn 0.4744 0.8107 0.3431
vn 0.4053 0.8876 -0.2190
vn 0.2408 0.8626 -0.4448
vn -0.2409 0.8627 -0.4448
vn 0.0000 0.9980 -0.0639
vn -0.0000 0.6570 -0.7539
vn 0.3834 -0.0576 -0.9218
vn -0.0000 -0.0348 -0.9994
vn -0.0000 -0.6220 -0.7830
vn -0.3490 -0.8826 -0.3149
vn 0.8611 0.4268 -0.2764
vn 0.6549 -0.2692 -0.7062
vn 0.7157 0.5402 -0.4427
vn 0.4052 0.9141 0.0162
vn 0.1644 -0.7129 -0.6818
vn 0.4619 -0.8189 0.3408
usemtl mat2
s 1
f 1/1/1 2/2/2 3/3/3
f 1/1/1 4/4/4 2/2/2
f 5/5/5 4/4/4 1/1/1
f 5/5/5 6/6/6 4/4/4
f 7/7/7 6/6/6 5/5/5
f 7/7/7 4/4/4 6/6/6
f 8/8/8 4/4/4 7/7/7
f 8/8/8 9/9/9 4/4/4
f 10/10/10 9/9/9 8/8/8
f 10/10/10 11/11/11 9/9/9
f 12/12/12 11/11/11 10/10/10
f 12/12/12 13/13/13 11/11/11
f 14/14/14 13/13/13 12/12/12
f 14/14/14 15/15/15 13/13/13
f 16/16/16 15/15/15 14/14/14
f 16/16/16 17/17/17 15/15/15
f 18/18/18 17/17/17 16/16/16
f 18/18/18 19/19/19 17/17/17
f 20/20/20 19/19/19 18/18/18
f 20/20/20 21/21/21 19/19/19
f 22/22/22 21/21/21 20/20/20
f 22/22/22 23/23/23 21/21/21
f 24/24/24 23/23/23 22/22/22
f 24/24/24 25/25/25 23/23/23
f 26/26/26 25/25/25 24/24/24
f 26/26/26 27/27/27 25/25/25
f 28/28/28 27/27/27 26/26/26
f 28/28/28 29/29/29 27/27/27
f 30/30/30 29/29/29 28/28/28
f 30/30/30 31/31/31 29/29/29
f 32/32/32 31/31/31 30/30/30
f 32/32/32 33/33/33 31/31/31
f 34/34/34 33/33/33 32/32/32
f 34/34/34 35/35/35 33/33/33
f 36/36/36 35/35/35 34/34/34
f 36/36/36 37/37/37 35/35/35
f 38/38/38 37/37/37 36/36/36
f 38/38/38 39/39/39 37/37/37
f 40/40/40 39/39/39 38/38/38
f 40/40/40 41/41/41 39/39/39
f 8/8/8 41/41/41 40/40/40
f 8/8/8 7/7/7 41/41/41
f 42/42/42 12/12/12 10/10/10
f 42/42/42 43/43/43 12/12/12
f 44/44/44 43/43/43 42/42/42
f 44/44/44 14/14/14 43/43/43
f 45/45/45 14/14/14 44/44/44
f 45/45/45 16/16/16 14/14/14
f 46/46/46 16/16/16 45/45/45
f 46/46/46 18/18/18 16/16/16
f 47/47/47 18/18/18 46/46/46
f 47/47/47 20/20/20 18/18/18
f 48/48/48 20/20/20 47/47/47
f 48/48/48 49/49/49 20/20/20
f 50/50/50 49/49/49 48/48/48
f 50/50/50 51/51/51 49/49/49
f 52/52/52 51/51/51 50/50/50
f 52/52/52 53/53/53 51/51/51
f 24/24/24 53/53/53 52/52/52
f 24/24/24 22/22/22 53/53/53
f 3/3/3 5/5/5 1/1/1
f 3/3/3 54/54/54 5/5/5
f 55/55/55 54/54/54 3/3/3
f 55/55/55 56/56/56 54/54/54
f 57/57/57 56/56/56 55/55/55
f 57/57/57 41/41/41 56/56/56
f 39/39/39 41/41/41 57/57/57
f 40/40/40 10/10/10 8/8/8
f 40/40/40 42/42/42 10/10/10
f 38/38/38 42/42/42 40/40/40
f 38/38/38 58/58/58 42/42/42
f 36/36/36 58/58/58 38/38/38
f 36/36/36 34/34/34 58/58/58
f 35/35/35 31/31/31 33/33/33
f 35/35/35 59/59/59 31/31/31
f 60/60/60 59/59/59 35/35/35
f 60/60/60 61/61/61 59/59/59
f 55/55/55 61/61/61 60/60/60
f 55/55/55 3/3/3 61/61/61
f 25/25/25 15/15/15 23/23/23
f 25/25/25 13/13/13 15/15/15
f 27/27/27 13/13/13 25/25/25
f 27/27/27 11/11/11 13/13/13
f 29/29/29 11/11/11 27/27/27
f 29/29/29 62/62/62 11/11/11
f 59/59/59 29/29/29 31/31/31
f 59/59/59 62/62/62 29/29/29
f 61/61/61 62/62/62 59/59/59
f 61/61/61 2/2/2 62/62/62
f 3/3/3 2/2/2 61/61/61
f 37/37/37 60/60/60 35/35/35
f 37/37/37 63/63/63 60/60/60
f 39/39/39 63/63/63 37/37/37
f 39/39/39 57/57/57 63/63/63
f 54/54/54 7/7/7 5/5/5
f 54/54/54 41/41/41 7/7/7
f 56/56/56 41/41/41 54/54/54
f 23/23/23 19/19/19 21/21/21
f 23/23/23 17/17/17 19/19/19
f 15/15/15 17/17/17 23/23/23
f 9/9/9 2/2/2 4/4/4
f 9/9/9 62/62/62 2/2/2
f 11/11/11 62/62/62 9/9/9
f 64/64/64 34/34/34 32/32/32
f 64/64/64 46/46/46 34/34/34
f 32/32/32 46/46/46 64/64/64
f 52/52/52 26/26/26 24/24/24
f 52/52/52 50/50/50 26/26/26
f 58/58/58 44/44/44 42/42/42
f 58/58/58 34/34/34 44/44/44
f 53/53/53 49/49/49 51/51/51
f 53/53/53 22/22/22 49/49/49
f 55/55/55 63/63/63 57/57/57
f 55/55/55 60/60/60 63/63/63
f 50/50/50 28/28/28 26/26/26
f 50/50/50 48/48/48 28/28/28
f 48/48/48 30/30/30 28/28/28
f 48/48/48 47/47/47 30/30/30
f 47/47/47 32/32/32 30/30/30
f 47/47/47 46/46/46 32/32/32
f 44/44/44 46/46/46 45/45/45
f 44/44/44 34/34/34 46/46/46
f 12/12/12 43/43/43 14/14/14
f 20/20/20 49/49/49 22/22/22
o polygon0
v 0.000000 0.149937 0.208514
v 0.000000 0.090267 0.255377
v 0.175983 0.089822 0.180579
v -0.175983 0.089822 0.180579
v -0.144552 0.149877 0.147442
v -0.202479 0.149843 0.000000
v -0.145412 0.196437 0.000000
v -0.144552 0.149877 -0.147442
v -0.103090 0.196439 -0.104257
v 0.000000 0.196442 -0.147442
v 0.000000 0.225860 -0.076321
v 0.103090 0.196439 -0.104257
v 0.053789 0.225860 -0.053967
v 0.076049 0.225860 0.000000
v 0.000000 0.235907 0.000000
v 0.053789 0.225860 0.053967
v 0.000000 0.225860 0.076321
v 0.103090 0.196439 0.104257
v 0.000000 0.196442 0.147442
v 0.144552 0.149877 0.147442
v 0.144552 -0.209593 0.147442
v 0.202479 -0.215244 -0.000000
v 0.175984 -0.172346 0.180578
v 0.145412 -0.233181 -0.000000
v 0.103090 -0.228918 0.104257
v 0.000000 -0.235907 -0.000000
v 0.000000 -0.222668 0.147442
v -0.103090 -0.228918 0.104257
v -0.144552 -0.209593 0.147442
v -0.145412 -0.233181 -0.000000
v -0.202479 -0.215244 -0.000000
v -0.144552 -0.209593 -0.147442
v -0.175984 -0.172346 -0.180579
v -0.243605 0.089612 0.000000
v -0.175983 0.089822 -0.180579
v 0.000000 0.149937 -0.208514
v 0.144552 0.149877 -0.147442
v 0.145412 0.196437 0.000000
v -0.103090 0.196439 0.104257
v -0.053789 0.225860 0.053967
v -0.076049 0.225860 0.000000
v -0.053789 0.225860 -0.053967
v -0.220665 -0.051046 -0.156386
v -0.151859 -0.049408 -0.230106
v -0.213693 -0.118445 -0.151057
v -0.195731 0.021023 -0.201409
v -0.267577 0.020286 0.000000
v -0.243605 0.089612 0.000000
v -0.195731 0.021023 0.201409
v -0.175983 0.089822 0.180579
v 0.000000 0.090267 0.255377
v 0.000000 0.090267 -0.255377
v 0.175983 0.089822 -0.180579
v 0.202479 0.149843 0.000000
v 0.036700 -0.110547 0.269193
v 0.146799 -0.115404 0.222266
v 0.037965 -0.046755 0.278689
v 0.175984 -0.172346 0.180578
v 0.000000 -0.161239 0.255377
v 0.000000 -0.199417 0.208514
v -0.175984 -0.172346 0.180578
v -0.144552 -0.209593 0.147442
v 0.213693 -0.118445 0.151057
v 0.146799 -0.115404 0.222266
v 0.243605 -0.177493 -0.000000
v 0.175984 -0.172346 -0.180579
v 0.144552 -0.209593 -0.147442
v 0.000000 -0.222668 -0.147442
v -0.103090 -0.228918 -0.104257
v 0.103090 -0.228918 -0.104257
v 0.036700 -0.110547 -0.269193
v 0.146799 -0.115404 -0.222266
v 0.175984 -0.172346 -0.180579
v 0.037965 -0.046755 -0.278689
v -0.036700 -0.110547 -0.269193
v -0.037965 -0.046755 -0.278689
v -0.146799 -0.115404 -0.222266
v -0.267577 -0.121090 -0.000000
v -0.275225 -0.052424 -0.000000
v -0.220665 -0.051046 0.156386
v 0.267577 -0.121090 -0.000000
v 0.213693 -0.118445 -0.151057
v 0.146799 -0.115404 -0.222266
v -0.213693 -0.118445 0.151057
v -0.175984 -0.172346 0.180578
v -0.146799 -0.115404 0.222266
v -0.243605 -0.177493 -0.000000
v -0.267577 -0.121090 -0.000000
v -0.213693 -0.118445 -0.151057
v -0.175984 -0.172346 -0.180579
v 0.000000 -0.161239 -0.255377
v 0.000000 0.022817 -0.284836
v 0.151859 -0.049408 -0.230106
v 0.037965 -0.046755 -0.278689
v 0.195731 0.021023 -0.201409
v 0.000000 0.090267 -0.255377
v 0.175983 0.089822 -0.180579
v 0.220665 -0.051046 0.156386
v 0.151859 -0.049408 0.230106
v 0.213693 -0.118445 0.151057
v 0.195731 0.021023 0.201409
v 0.267577 0.020286 0.000000
v 0.243605 0.089612 0.000000
v 0.144552 -0.209593 0.147442
v 0.000000 -0.222668 0.147442
v -0.036700 -0.110547 0.269193
v -0.146799 -0.115404 0.222266
v -0.037965 -0.046755 0.278689
v 0.000000 0.022817 0.284836
v 0.037965 -0.046755 0.278689
v -0.037965 -0.046755 0.278689
v -0.151859 -0.049408 0.230106
v -0.175983 0.089822 -0.180579
v 0.220665 -0.051046 -0.156386
v 0.213693 -0.118445 -0.151057
v 0.267577 -0.121090 -0.000000
v 0.275225 -0.052424 -0.000000
v 0.267577 0.020286 0.000000
v 0.000000 -0.199417 -0.208514
v 0.144552 -0.209593 -0.147442
v -0.144552 -0.209593 -0.147442
v 0.000000 -0.222668 -0.147442
v 0.243605 0.089612 0.000000
v 0.267577 -0.121090 -0.000000
v 0.275225 -0.052424 -0.000000
v 0.175983 0.089822 0.180579
v 0.243605 0.089612 0.000000
v -0.037965 -0.046755 -0.278689
v -0.213693 -0.118445 0.151057
v -0.146799 -0.115404 -0.222266
vt 0.250000 0.920245
vt 0.250000 0.958506
vt 0.395322 0.897436
vt 0.104678 0.897436
vt 0.130633 0.870381
vt 0.082798 0.750000
vt 0.129923 0.750000
vt 0.130633 0.629619
vt 0.164871 0.664878
vt 0.250000 0.629619
vt 0.250000 0.687687
vt 0.335129 0.664878
vt 0.294418 0.705938
vt 0.312799 0.750000
vt 0.250000 0.750000
vt 0.294418 0.794062
vt 0.250000 0.812314
vt 0.335129 0.835122
vt 0.250000 0.870381
vt 0.369367 0.870381
vt 0.584943 0.289838
vt 0.748631 0.281282
vt 0.548650 0.346226
vt 0.748631 0.254127
vt 0.632241 0.260580
vt 0.748631 0.252003
vt 0.584943 0.270042
vt 0.632241 0.260580
vt 0.584943 0.289838
vt 0.748631 0.254127
vt 0.748631 0.281282
vt 0.585810 0.289838
vt 0.549517 0.346226
vt 0.048838 0.750000
vt 0.104678 0.602564
vt 0.250000 0.579755
vt 0.369367 0.629619
vt 0.370077 0.750000
vt 0.164871 0.835122
vt 0.205582 0.794062
vt 0.187201 0.750000
vt 0.205582 0.705938
vt 0.401874 0.733724
vt 0.342841 0.735112
vt 0.402067 0.676584
vt 0.372725 0.794824
vt 0.500000 0.794198
vt 0.500000 0.852972
vt 0.627275 0.794824
vt 0.627051 0.853150
vt 0.750000 0.853527
vt 0.250000 0.541494
vt 0.395322 0.602564
vt 0.417202 0.750000
vt 0.324080 0.379569
vt 0.494733 0.364861
vt 0.338369 0.495387
vt 0.494733 0.192451
vt 0.250000 0.226082
vt 0.250000 0.110484
vt 0.007703 0.192451
vt 0.007703 0.079675
vt 0.580984 0.427828
vt 0.502992 0.432431
vt 0.748631 0.338434
vt 0.549517 0.346226
vt 0.585810 0.289838
vt 0.585810 0.270042
vt 0.633108 0.260580
vt 0.633108 0.260580
vt 0.324080 0.379569
vt 0.494733 0.364861
vt 0.494733 0.192451
vt 0.338369 0.495387
vt 0.175920 0.379569
vt 0.161631 0.495387
vt 0.007703 0.364861
vt 0.500000 0.674340
vt 0.500000 0.732556
vt 0.598126 0.733724
vt 0.748631 0.423823
vt 0.581851 0.427828
vt 0.503859 0.432431
vt 0.580984 0.427828
vt 0.548650 0.346226
vt 0.502992 0.432431
vt 0.748631 0.338434
vt 0.748631 0.423823
vt 0.581851 0.427828
vt 0.007703 0.192451
vt 0.250000 0.226082
vt 0.250000 0.796345
vt 0.157159 0.735112
vt 0.228452 0.737361
vt 0.127275 0.794824
vt 0.250000 0.853527
vt 0.127051 0.853150
vt 0.901874 0.733724
vt 0.842841 0.735112
vt 0.902067 0.676584
vt 0.872725 0.794824
vt 0.995454 0.794198
vt 0.995454 0.852972
vt 0.494733 0.079675
vt 0.250000 0.040085
vt 0.175920 0.379569
vt 0.007703 0.364861
vt 0.161631 0.495387
vt 0.750000 0.796345
vt 0.771548 0.737361
vt 0.728452 0.737361
vt 0.657159 0.735112
vt 0.372949 0.853150
vt 0.098126 0.733724
vt 0.097933 0.676584
vt 0.004546 0.674340
vt 0.004546 0.732556
vt 0.004546 0.794198
vt 0.250000 0.110484
vt 0.494733 0.079675
vt 0.007703 0.079675
vt 0.250000 0.040085
vt 0.004546 0.852972
vt 0.995454 0.674340
vt 0.995454 0.732556
vt 0.872949 0.853150
vt 0.451162 0.750000
vt 0.271548 0.737361
vt 0.597933 0.676584
vt 0.503859 0.432431
vn 0.0000 0.6809 0.7324
vn 0.0000 0.4742 0.8804
vn 0.6123 0.5327 0.5843
vn -0.6123 0.5327 0.5843
vn -0.4878 0.7332 0.4738
vn -0.7595 0.6505 -0.0000
vn -0.5512 0.8343 -0.0000
vn -0.4878 0.7332 -0.4738
vn -0.3307 0.8856 -0.3261
vn -0.0000 0.8445 -0.5356
vn 0.0000 0.9538 -0.3005
vn 0.3307 0.8856 -0.3261
vn 0.1841 0.9657 -0.1831
vn 0.3047 0.9524 -0.0000
vn -0.0000 1.0000 0.0000
vn 0.1841 0.9657 0.1831
vn -0.0000 0.9538 0.3005
vn 0.3307 0.8856 0.3261
vn -0.0000 0.8445 0.5356
vn 0.4878 0.7332 0.4738
vn 0.2704 -0.9054 0.3272
vn 0.5433 -0.8395 -0.0000
vn 0.5301 -0.5960 0.6031
vn 0.2024 -0.9793 0.0000
vn 0.0919 -0.9829 0.1594
vn 0.0000 -1.0000 0.0000
vn 0.0000 -0.9647 0.2634
vn -0.0919 -0.9829 0.1594
vn -0.2704 -0.9054 0.3272
vn -0.2024 -0.9793 0.0000
vn -0.5433 -0.8395 -0.0000
vn -0.2704 -0.9054 -0.3272
vn -0.5301 -0.5960 -0.6031
vn -0.9056 0.4241 -0.0000
vn -0.6123 0.5327 -0.5843
vn -0.0000 0.6809 -0.7324
vn 0.4878 0.7332 -0.4738
vn 0.5512 0.8343 -0.0000
vn -0.3307 0.8856 0.3261
vn -0.1841 0.9657 0.1831
vn -0.3047 0.9524 -0.0000
vn -0.1841 0.9657 -0.1831
vn -0.8875 -0.0538 -0.4577
vn -0.5736 -0.0101 -0.8191
vn -0.8429 -0.2398 -0.4817
vn -0.7093 0.2291 -0.6667
vn -0.9826 0.1858 0.0000
vn -0.9056 0.4240 -0.0000
vn -0.7093 0.2291 0.6667
vn -0.0000 0.4742 -0.8804
vn 0.6123 0.5327 -0.5843
vn 0.7595 0.6505 0.0000
vn 0.2140 -0.2981 0.9302
vn 0.4942 -0.2445 0.8342
vn 0.1988 -0.0631 0.9780
vn 0.0000 -0.5732 0.8194
vn 0.0000 -0.8348 0.5505
vn -0.5301 -0.5960 0.6031
vn 0.8429 -0.2398 0.4817
vn 0.8462 -0.5329 -0.0000
vn 0.5301 -0.5960 -0.6031
vn 0.2704 -0.9054 -0.3272
vn -0.0000 -0.9647 -0.2634
vn -0.0919 -0.9829 -0.1594
vn 0.0919 -0.9829 -0.1594
vn 0.2140 -0.2981 -0.9302
vn 0.4942 -0.2445 -0.8342
vn 0.1988 -0.0631 -0.9780
vn -0.2140 -0.2981 -0.9302
vn -0.1988 -0.0631 -0.9780
vn -0.4942 -0.2445 -0.8342
vn -0.9771 -0.2130 0.0000
vn -1.0000 -0.0031 -0.0000
vn -0.8875 -0.0538 0.4577
vn 0.9770 -0.2130 0.0000
vn 0.8429 -0.2398 -0.4817
vn -0.8429 -0.2398 0.4817
vn -0.4942 -0.2445 0.8342
vn -0.8462 -0.5329 -0.0000
vn -0.9770 -0.2130 -0.0000
vn -0.0000 -0.5732 -0.8194
vn 0.0000 0.1829 -0.9831
vn 0.5736 -0.0101 -0.8191
vn 0.7093 0.2291 -0.6667
vn 0.8875 -0.0538 0.4577
vn 0.5736 -0.0101 0.8191
vn 0.7093 0.2291 0.6667
vn 0.9826 0.1858 0.0000
vn 0.9056 0.4241 -0.0000
vn -0.2140 -0.2981 0.9302
vn -0.1988 -0.0631 0.9780
vn 0.0000 0.1829 0.9831
vn -0.5736 -0.0101 0.8191
vn 0.8875 -0.0538 -0.4577
vn 0.9771 -0.2130 -0.0000
vn 1.0000 -0.0030 0.0000
vn 0.0000 -0.8348 -0.5505
usemtl mat1
s 1
f 65/65/65 66/66/66 67/67/67
f 65/65/65 68/68/68 66/66/66
f 69/69/69 68/68/68 65/65/65
f 69/69/69 70/70/70 68/68/68
f 71/71/71 70/70/70 69/69/69
f 71/71/71 72/72/72 70/70/70
f 73/73/73 72/72/72 71/71/71
f 73/73/73 74/74/74 72/72/72
f 75/75/75 74/74/74 73/73/73
f 75/75/75 76/76/76 74/74/74
f 77/77/77 76/76/76 75/75/75
f 77/77/77 78/78/78 76/76/76
f 79/79/79 78/78/78 77/77/77
f 79/79/79 80/80/80 78/78/78
f 81/81/81 80/80/80 79/79/79
f 81/81/81 82/82/82 80/80/80
f 83/83/83 82/82/82 81/81/81
f 83/83/83 84/84/84 82/82/82
f 65/65/65 84/84/84 83/83/83
f 65/65/65 67/67/67 84/84/84
f 85/85/85 86/86/86 87/87/87
f 85/85/85 88/88/88 86/86/86
f 89/89/89 88/88/88 85/85/85
f 89/89/89 90/90/90 88/88/88
f 91/91/91 90/90/90 89/89/89
f 91/91/91 92/92/92 90/90/90
f 93/93/93 92/92/92 91/91/91
f 93/93/93 94/94/94 92/92/92
f 95/95/95 94/94/94 93/93/93
f 95/95/95 96/96/96 94/94/94
f 97/97/97 96/96/96 95/95/95
f 70/70/70 98/98/98 68/68/68
f 70/70/70 99/99/99 98/98/98
f 72/72/72 99/99/99 70/70/70
f 72/72/72 100/100/100 99/99/99
f 74/74/74 100/100/100 72/72/72
f 74/74/74 101/101/101 100/100/100
f 76/76/76 101/101/101 74/74/74
f 76/76/76 102/102/102 101/101/101
f 78/78/78 102/102/102 76/76/76
f 78/78/78 82/82/82 102/102/102
f 80/80/80 82/82/82 78/78/78
f 83/83/83 69/69/69 65/65/65
f 83/83/83 103/103/103 69/69/69
f 81/81/81 103/103/103 83/83/83
f 81/81/81 104/104/104 103/103/103
f 79/79/79 104/104/104 81/81/81
f 79/79/79 105/105/105 104/104/104
f 106/106/106 105/105/105 79/79/79
f 106/106/106 73/73/73 105/105/105
f 75/75/75 73/73/73 106/106/106
f 107/107/107 108/108/108 109/109/109
f 107/107/107 110/110/110 108/108/108
f 111/111/111 110/110/110 107/107/107
f 111/111/111 112/112/112 110/110/110
f 113/113/113 112/112/112 111/111/111
f 113/113/113 114/114/68 112/112/112
f 115/115/66 114/114/68 113/113/113
f 100/100/100 116/116/114 99/99/99
f 100/100/100 117/117/115 116/116/114
f 101/101/101 117/117/115 100/100/100
f 101/101/101 118/118/116 117/117/115
f 102/102/102 118/118/116 101/101/101
f 102/102/102 84/84/84 118/118/116
f 82/82/82 84/84/84 102/102/102
f 119/119/117 120/120/118 121/121/119
f 119/119/117 122/122/87 120/120/118
f 123/123/120 122/122/87 119/119/117
f 123/123/120 124/124/121 122/122/87
f 125/125/122 124/124/121 123/123/120
f 125/125/122 126/126/93 124/124/121
f 87/87/87 127/127/123 128/128/118
f 87/87/87 129/129/124 127/127/123
f 86/86/86 129/129/124 87/87/87
f 86/86/86 130/130/125 129/129/124
f 131/131/126 130/130/125 86/86/86
f 132/132/127 90/90/90 133/133/128
f 132/132/127 134/134/129 90/90/90
f 131/131/126 134/134/129 132/132/127
f 131/131/126 88/88/88 134/134/129
f 86/86/86 88/88/88 131/131/126
f 135/135/130 136/136/131 137/137/125
f 135/135/130 138/138/132 136/136/131
f 139/139/133 138/138/132 135/135/130
f 139/139/133 140/140/134 138/138/132
f 141/141/135 140/140/134 139/139/133
f 142/142/136 107/107/107 109/109/109
f 142/142/136 143/143/137 107/107/107
f 144/144/138 143/143/137 142/142/136
f 144/144/138 111/111/111 143/143/137
f 113/113/113 111/111/111 144/144/138
f 129/129/124 145/145/139 127/127/123
f 129/129/124 146/146/140 145/145/139
f 130/130/125 146/146/140 129/129/124
f 130/130/125 147/147/131 146/146/140
f 148/148/141 149/149/122 150/150/142
f 148/148/141 151/151/143 149/149/122
f 152/152/144 151/151/143 148/148/141
f 152/152/144 153/153/109 151/151/143
f 94/94/94 90/90/90 92/92/92
f 94/94/94 133/133/128 90/90/90
f 96/96/96 133/133/128 94/94/94
f 96/96/96 132/132/127 133/133/128
f 139/139/133 154/154/97 141/141/135
f 139/139/133 155/155/145 154/154/97
f 135/135/130 155/155/145 139/139/133
f 135/135/130 137/137/125 155/155/145
f 156/156/146 157/157/147 158/158/132
f 156/156/146 159/159/148 157/157/147
f 160/160/114 159/159/148 156/156/146
f 160/160/114 161/161/115 159/159/148
f 162/162/149 163/163/150 164/164/123
f 162/162/149 165/165/151 163/163/150
f 166/166/152 165/165/151 162/162/149
f 166/166/152 167/167/153 165/165/151
f 124/124/121 168/168/85 122/122/87
f 124/124/121 169/169/91 168/168/85
f 126/126/93 169/169/91 124/124/121
f 170/170/154 125/125/122 123/123/120
f 170/170/154 171/171/142 125/125/122
f 172/172/155 171/171/142 170/170/154
f 173/173/156 174/174/119 163/163/150
f 173/173/156 175/175/155 174/174/119
f 176/176/157 175/175/155 173/173/156
f 110/110/110 156/156/146 108/108/108
f 110/110/110 160/160/114 156/156/146
f 177/177/99 160/160/114 110/110/110
f 178/178/158 179/179/140 157/157/147
f 178/178/158 180/180/159 179/179/140
f 181/181/160 180/180/159 178/178/158
f 178/178/158 182/182/152 181/181/160
f 178/178/158 159/159/148 182/182/152
f 157/157/147 159/159/148 178/178/158
f 105/105/105 103/103/103 104/104/104
f 105/105/105 71/71/71 103/103/103
f 73/73/73 71/71/71 105/105/105
f 183/183/161 137/137/125 184/184/126
f 183/183/161 155/155/145 137/137/125
f 154/154/97 155/155/145 183/183/161
f 183/183/161 185/185/96 154/154/97
f 183/183/161 186/186/127 185/185/96
f 184/184/126 186/186/127 183/183/161
f 187/187/153 159/159/148 161/161/115
f 187/187/153 182/182/152 159/159/148
f 119/119/117 170/170/154 123/123/120
f 119/119/117 121/121/119 170/170/154
f 188/188/159 162/162/149 164/164/123
f 188/188/159 189/189/160 162/162/149
f 190/190/67 165/165/151 167/167/153
f 190/190/67 115/115/66 165/165/151
f 149/149/122 95/95/95 93/93/93
f 149/149/122 151/151/143 95/95/95
f 165/165/151 173/173/156 163/163/150
f 165/165/151 115/115/66 173/173/156
f 67/67/67 118/118/116 84/84/84
f 67/67/67 191/191/153 118/118/116
f 151/151/143 97/97/97 95/95/95
f 151/151/143 153/153/109 97/97/97
f 192/192/134 156/156/146 158/158/132
f 192/192/134 108/108/108 156/156/146
f 79/79/79 75/75/75 106/106/106
f 79/79/79 77/77/77 75/75/75
f 193/193/141 144/144/138 142/142/136
f 193/193/141 176/176/157 144/144/138
f 176/176/157 113/113/113 144/144/138
f 176/176/157 173/173/156 113/113/113
f 91/91/91 89/89/89 85/85/85
f 153/153/109 194/194/135 97/97/97
f 90/90/90 134/134/129 88/88/88
f 172/172/155 170/170/154 121/121/119
f 162/162/149 189/189/160 166/166/152
f 113/113/113 173/173/156 115/115/66
f 110/110/110 112/112/112 177/177/99
f 107/107/107 143/143/137 111/111/111
f 118/118/116 191/191/153 117/117/115
f 69/69/69 103/103/103 71/71/71
